<svg version="1.1" xmlns="http://www.w3.org/2000/svg" viewBox="0 0 504.00368773151604 558.1472659350186" width="1512.0110631945481" height="1674.4417978050558">
  <!-- svg-source:excalidraw -->
  
  <defs>
    <style>
      @font-face {
        font-family: "Virgil";
        src: url("https://excalidraw.com/Virgil.woff2");
      }
      @font-face {
        font-family: "Cascadia";
        src: url("https://excalidraw.com/Cascadia.woff2");
      }
    </style>
  </defs>
  <rect x="0" y="0" width="504.00368773151604" height="558.1472659350186" fill="#ffffff"></rect><g transform="translate(13.5 133.26851694988892) rotate(0 96 13)"><text x="0" y="18" font-family="Virgil, Segoe UI Emoji" font-size="20px" fill="#000000" text-anchor="start" style="white-space: pre;" direction="ltr">A data web service</text></g><g stroke-linecap="round"><g transform="translate(27.265877369741702 381.4165028350688) rotate(0 44.25627816896531 47.879964154331105)" fill-rule="evenodd"><path d="M-1.83 0.41 L-1.28 95.85 L0.15 96.52 L19.98 102.29 L45.41 106.31 L73.66 101.51 L81.3 102.29 L89.2 95.33 L86.38 -3.14 L88.84 -0.7 L87.06 -4.24 L78.4 -5.13 L40.76 -10.37 L11.59 -6.6 L3.65 -2.93 L1.45 0.68" stroke="none" stroke-width="0" fill="#228be6" fill-rule="evenodd"></path><path d="M0.74 -0.24 C0.92 13.97, 0.58 69.51, 0.27 85.36 C-0.03 101.21, -1.83 92.6, -1.09 94.87 C-0.35 97.14, 0.98 97.7, 4.73 98.98 C8.48 100.26, 14.51 101.73, 21.39 102.53 C28.27 103.33, 37.51 103.75, 46.02 103.78 C54.53 103.81, 65.77 103.62, 72.45 102.72 C79.13 101.83, 83.34 99.56, 86.1 98.41 C88.86 97.26, 88.77 97.55, 89 95.84 C89.23 94.13, 87.48 102.98, 87.46 88.14 C87.44 73.3, 89.02 21.54, 88.89 6.8 C88.76 -7.94, 88 1.6, 86.68 -0.29 C85.37 -2.17, 83.85 -3.27, 80.98 -4.5 C78.1 -5.73, 75.66 -6.87, 69.44 -7.68 C63.22 -8.49, 51.81 -9.43, 43.65 -9.34 C35.49 -9.24, 27.09 -7.99, 20.47 -7.11 C13.86 -6.22, 7.31 -5.05, 3.96 -4.04 C0.6 -3.04, 0.81 -1.68, 0.33 -1.08 C-0.15 -0.48, 1.07 -0.75, 1.06 -0.47 M-0.34 -1.42 C-0.23 12.94, -0.94 70.35, -0.68 86.54 C-0.42 102.72, 0.26 93.51, 1.22 95.67 C2.18 97.83, 1.86 98.4, 5.08 99.51 C8.29 100.62, 13.51 101.27, 20.48 102.33 C27.46 103.39, 38.15 106.05, 46.92 105.87 C55.69 105.69, 66.73 102.56, 73.09 101.23 C79.46 99.9, 82.66 98.97, 85.13 97.9 C87.6 96.83, 87.45 96.45, 87.91 94.82 C88.36 93.2, 87.56 102.69, 87.86 88.15 C88.16 73.6, 89.6 22.37, 89.7 7.57 C89.81 -7.24, 90 1.46, 88.51 -0.68 C87.02 -2.82, 84.1 -4.03, 80.77 -5.29 C77.43 -6.54, 74.54 -7.43, 68.49 -8.22 C62.45 -9.01, 52.35 -9.88, 44.48 -10.03 C36.61 -10.18, 28.22 -10.22, 21.28 -9.13 C14.33 -8.03, 6.47 -4.79, 2.8 -3.48 C-0.88 -2.17, -0.33 -1.76, -0.76 -1.25 C-1.18 -0.75, -0.04 -0.53, 0.23 -0.46" stroke="#0a11d3" stroke-width="1" fill="none"></path></g></g><g stroke-linecap="round"><g transform="translate(27.953238959238888 446.7066308658564) rotate(0 43.86752209177382 4.584449537132571)"><path d="M-0.24 -0.02 C0.02 0.33, -0.3 1.57, 1.64 2.8 C3.57 4.03, 7.55 6.13, 11.38 7.37 C15.21 8.61, 18.92 10.07, 24.61 10.24 C30.29 10.41, 37.92 8.74, 45.49 8.38 C53.06 8.02, 63.45 8.88, 70.03 8.08 C76.62 7.28, 82.02 4.83, 85.01 3.59 C88 2.36, 87.31 1.44, 87.98 0.65 M1.83 -1.07 C2.48 -0.68, 2 2.11, 3.98 3.76 C5.97 5.4, 10.38 8.04, 13.76 8.78 C17.14 9.53, 18.72 8.33, 24.28 8.25 C29.83 8.16, 39.32 8.47, 47.09 8.27 C54.86 8.06, 64.51 8.03, 70.92 7.04 C77.32 6.05, 82.86 3.33, 85.51 2.3 C88.15 1.28, 86.42 1.15, 86.78 0.89" stroke="#0a11d3" stroke-width="1" fill="none"></path></g></g><g stroke-linecap="round"><g transform="translate(26.859497447177546 413.6324763037847) rotate(0 43.9625980983642 3.971073784848784)"><path d="M-0.02 -0.69 C0.06 -0.16, -0.87 1.8, 1.22 2.93 C3.31 4.05, 8.29 5.23, 12.55 6.08 C16.81 6.93, 21.26 7.66, 26.78 8.03 C32.3 8.41, 38.29 8.38, 45.66 8.34 C53.04 8.31, 64.41 8.67, 71.03 7.81 C77.65 6.94, 82.33 4.42, 85.4 3.16 C88.46 1.9, 89.04 0.7, 89.41 0.24 M-1.48 1.56 C-1.11 2.23, 1.12 3.07, 3.35 3.95 C5.58 4.83, 8.45 6.05, 11.88 6.82 C15.31 7.59, 18.02 8.31, 23.93 8.54 C29.85 8.77, 39.26 8.53, 47.34 8.21 C55.43 7.89, 65.98 7.1, 72.44 6.62 C78.9 6.13, 83.34 6.36, 86.09 5.3 C88.85 4.24, 88.44 1.23, 88.96 0.27" stroke="#0a11d3" stroke-width="1" fill="none"></path></g></g><g stroke-linecap="round" transform="translate(25.738674761015773 373.3918066079721) rotate(0 43.825373054270926 8.863351988406805)"><path d="M27.2 -0.06 C35.27 -0.93, 49.31 -0.65, 58.34 0.14 C67.36 0.94, 76.44 2.95, 81.36 4.69 C86.27 6.43, 89.23 8.74, 87.83 10.6 C86.43 12.46, 80.32 14.81, 72.95 15.85 C65.59 16.88, 53.12 16.85, 43.64 16.82 C34.17 16.79, 23.29 16.64, 16.12 15.67 C8.96 14.71, 2.32 13.02, 0.63 11.02 C-1.06 9.01, -0.24 5.29, 6 3.63 C12.24 1.97, 31.23 1.56, 38.06 1.05 C44.88 0.54, 46.97 0.43, 46.95 0.57 M40.09 -0.57 C49.22 -1.19, 61.67 -0.59, 69.35 0.69 C77.03 1.98, 83.86 4.98, 86.16 7.15 C88.45 9.33, 87.04 12.26, 83.11 13.74 C79.18 15.22, 70.85 15.2, 62.59 16.05 C54.33 16.9, 42.77 19.15, 33.56 18.86 C24.34 18.57, 12.87 16.25, 7.3 14.32 C1.74 12.39, -0.84 9.03, 0.19 7.28 C1.22 5.52, 7.21 5.16, 13.49 3.8 C19.77 2.43, 33.56 -0.32, 37.86 -0.93 C42.16 -1.54, 38.93 -0.09, 39.31 0.15" stroke="none" stroke-width="0" fill="#fff"></path><path d="M27.32 -0.22 C35.12 -1.02, 46.7 -1.13, 55.55 -0.47 C64.4 0.19, 75.1 2.07, 80.41 3.75 C85.73 5.43, 88.38 7.59, 87.45 9.61 C86.52 11.63, 81.79 14.41, 74.85 15.88 C67.91 17.35, 55.23 18.48, 45.83 18.44 C36.43 18.4, 26.02 16.88, 18.47 15.63 C10.92 14.38, 2.95 12.74, 0.53 10.96 C-1.9 9.18, -0.59 6.77, 3.94 4.95 C8.47 3.13, 23.22 0.8, 27.7 0.04 C32.18 -0.71, 30.56 0.09, 30.83 0.42 M45.82 1.35 C54.74 1.35, 66.78 1.97, 73.85 2.85 C80.91 3.72, 87.13 4.9, 88.21 6.61 C89.29 8.31, 85.72 11.42, 80.34 13.08 C74.95 14.73, 65.21 15.95, 55.89 16.55 C46.57 17.15, 33.19 17.53, 24.42 16.69 C15.66 15.85, 6.96 13.05, 3.3 11.53 C-0.35 10.01, 0.2 9.15, 2.5 7.58 C4.81 6.01, 9.53 3.2, 17.13 2.12 C24.73 1.04, 43.33 1.63, 48.09 1.1 C52.84 0.57, 46.11 -1.2, 45.66 -1.06" stroke="#0a11d3" stroke-width="1" fill="none"></path></g><g stroke-linecap="round" transform="translate(97.24840706159648 397.9676094851057) rotate(0 6.423028523489904 6.970952181208077)"><path d="M7.67 0.49 C8.82 0.98, 10.56 1.78, 11.48 3.13 C12.39 4.47, 13.23 7, 13.17 8.57 C13.12 10.13, 12.15 11.76, 11.13 12.51 C10.1 13.25, 8.61 13.06, 7.03 13.05 C5.45 13.04, 2.79 13.24, 1.64 12.46 C0.48 11.67, 0.17 9.72, 0.09 8.36 C0.02 6.99, 0.7 5.41, 1.18 4.27 C1.67 3.12, 1.58 2.02, 3 1.51 C4.43 0.99, 8.63 1.26, 9.72 1.18 C10.81 1.09, 9.59 1.03, 9.54 0.98 M3.95 1.29 C4.86 0.69, 6.64 0.46, 8.13 0.76 C9.62 1.06, 11.91 1.86, 12.88 3.09 C13.85 4.32, 14.51 6.5, 13.94 8.14 C13.38 9.78, 10.57 12.12, 9.49 12.91 C8.41 13.7, 8.67 13.01, 7.46 12.88 C6.26 12.75, 3.67 12.79, 2.27 12.14 C0.88 11.48, -0.9 10.7, -0.92 8.97 C-0.94 7.24, 1.39 3.2, 2.14 1.74 C2.89 0.29, 3.19 0.4, 3.59 0.24 C3.99 0.09, 4.4 0.55, 4.53 0.81" stroke="none" stroke-width="0" fill="#fff"></path><path d="M5.98 -0.78 C7.3 -0.91, 8.98 0.8, 10.09 1.99 C11.19 3.19, 12.36 4.75, 12.58 6.39 C12.81 8.03, 12.09 10.71, 11.44 11.83 C10.8 12.95, 9.88 12.72, 8.72 13.1 C7.56 13.48, 5.9 14.73, 4.49 14.1 C3.09 13.46, 0.99 10.91, 0.28 9.31 C-0.43 7.72, -0.16 5.93, 0.25 4.53 C0.66 3.13, 1.68 1.54, 2.75 0.92 C3.82 0.31, 5.91 1.02, 6.66 0.84 C7.41 0.66, 7.08 -0.14, 7.26 -0.13 M6.8 -0.51 C8.05 -0.46, 9.38 0.87, 10.1 1.8 C10.83 2.73, 10.89 3.74, 11.14 5.06 C11.39 6.38, 12.04 8.62, 11.62 9.73 C11.2 10.84, 9.77 11.21, 8.64 11.72 C7.52 12.23, 6.3 12.65, 4.9 12.77 C3.49 12.89, 0.89 13.64, 0.22 12.46 C-0.44 11.28, 0.6 7.19, 0.91 5.67 C1.21 4.15, 1.12 4.5, 2.06 3.34 C3 2.18, 6.18 -0.55, 6.54 -1.3 C6.9 -2.05, 4.22 -1.46, 4.22 -1.16" stroke="#0a11d3" stroke-width="1" fill="none"></path></g><g stroke-linecap="round" transform="translate(97.24840706159648 428.57006334416616) rotate(0 6.423028523489904 6.970952181208077)"><path d="M7.88 -0.2 C9.33 0.16, 10.43 1.72, 11.38 3 C12.33 4.29, 13.52 6.01, 13.57 7.48 C13.62 8.96, 12.84 10.96, 11.66 11.87 C10.48 12.78, 7.94 12.79, 6.5 12.96 C5.05 13.12, 4.06 13.4, 3 12.85 C1.95 12.3, 0.52 11.22, 0.17 9.67 C-0.18 8.11, 0.23 4.81, 0.92 3.5 C1.61 2.19, 2.92 2.25, 4.31 1.8 C5.7 1.34, 8.4 0.78, 9.26 0.78 C10.13 0.78, 9.69 1.85, 9.51 1.8 M9.64 -0.39 C10.8 0.24, 11.81 2.6, 12.2 4.24 C12.59 5.89, 12.35 8.26, 12 9.48 C11.66 10.7, 10.98 10.58, 10.1 11.55 C9.23 12.53, 8.23 15.18, 6.75 15.34 C5.27 15.51, 2.32 13.9, 1.22 12.54 C0.12 11.18, 0.04 8.51, 0.18 7.18 C0.31 5.85, 1.6 5.84, 2.05 4.55 C2.49 3.26, 1.75 0.13, 2.84 -0.57 C3.94 -1.27, 7.57 0.23, 8.6 0.36 C9.62 0.48, 8.88 0.25, 8.99 0.17" stroke="none" stroke-width="0" fill="#fff"></path><path d="M2.77 -0.11 C3.76 -0.7, 6.46 -0.48, 7.94 -0.03 C9.43 0.41, 10.72 1.23, 11.69 2.57 C12.66 3.91, 13.95 6.34, 13.75 8 C13.55 9.66, 11.45 11.59, 10.48 12.52 C9.5 13.44, 9.29 13.5, 7.91 13.55 C6.53 13.6, 3.59 13.58, 2.19 12.82 C0.8 12.06, -0.1 10.52, -0.44 8.99 C-0.78 7.45, -0.74 5.08, 0.16 3.62 C1.07 2.16, 4.27 0.65, 4.99 0.21 C5.72 -0.23, 4.59 0.87, 4.52 0.96 M6.85 0.41 C8.49 0.1, 10.99 0.08, 12.05 1.03 C13.1 1.97, 13.22 4.49, 13.15 6.07 C13.08 7.65, 12.76 9.26, 11.62 10.51 C10.47 11.76, 7.83 13.33, 6.27 13.56 C4.72 13.79, 3.06 12.42, 2.27 11.89 C1.49 11.36, 2.08 11.5, 1.57 10.37 C1.06 9.25, -1.19 6.54, -0.77 5.15 C-0.35 3.77, 2.96 3.12, 4.1 2.06 C5.24 1.01, 5.73 -1.04, 6.05 -1.18 C6.37 -1.31, 5.86 0.7, 6.03 1.24" stroke="#0a11d3" stroke-width="1" fill="none"></path></g><g stroke-linecap="round" transform="translate(97.24840706159648 461.83086451866285) rotate(0 6.423028523489904 6.970952181208077)"><path d="M3.07 0.75 C4.35 0.1, 6.68 0.49, 8.14 0.88 C9.6 1.27, 10.99 2.2, 11.82 3.11 C12.66 4.01, 13.38 4.92, 13.13 6.33 C12.87 7.74, 11.27 10.34, 10.29 11.57 C9.31 12.79, 8.38 13.41, 7.25 13.71 C6.11 14.01, 4.8 13.96, 3.49 13.36 C2.18 12.75, -0.27 11.47, -0.61 10.09 C-0.96 8.7, 0.46 6.66, 1.42 5.05 C2.37 3.44, 4.19 1.26, 5.13 0.4 C6.07 -0.45, 7.2 -0.27, 7.06 -0.06 M7.34 0.46 C8.84 0.47, 11.33 1.17, 12.45 2.3 C13.58 3.43, 14.47 5.57, 14.08 7.24 C13.69 8.91, 11.09 11.38, 10.13 12.32 C9.16 13.26, 9.51 12.81, 8.3 12.87 C7.1 12.94, 4.43 13.22, 2.92 12.72 C1.41 12.21, -0.57 11.56, -0.77 9.86 C-0.96 8.17, 1.13 4.09, 1.73 2.54 C2.32 0.98, 1.74 0.88, 2.8 0.56 C3.86 0.25, 7.26 0.53, 8.08 0.64 C8.91 0.76, 7.95 1.3, 7.73 1.24" stroke="none" stroke-width="0" fill="#fff"></path><path d="M8.36 0.68 C9.7 1.36, 11.38 2.67, 12.04 4.18 C12.7 5.7, 12.57 8.44, 12.33 9.77 C12.1 11.09, 11.6 11.31, 10.63 12.14 C9.66 12.96, 8.05 14.85, 6.53 14.69 C5 14.53, 2.56 12.5, 1.48 11.18 C0.41 9.87, 0.1 8.24, 0.07 6.8 C0.03 5.36, 0.56 3.5, 1.26 2.53 C1.96 1.57, 2.95 1.35, 4.28 1.01 C5.61 0.66, 8.24 0.42, 9.23 0.46 C10.23 0.5, 10.32 1.03, 10.25 1.25 M4.08 1.4 C4.79 0.88, 5.62 0.25, 6.76 0.56 C7.9 0.86, 10.06 2.27, 10.93 3.22 C11.8 4.17, 12.01 4.98, 11.97 6.26 C11.93 7.54, 11.71 9.44, 10.68 10.91 C9.64 12.37, 6.94 14.96, 5.76 15.06 C4.58 15.17, 4.45 12.42, 3.6 11.53 C2.75 10.64, 0.98 11.19, 0.66 9.7 C0.34 8.22, 1.39 4.34, 1.69 2.6 C2 0.86, 1.97 -0.4, 2.49 -0.75 C3.01 -1.1, 4.35 0.33, 4.82 0.49" stroke="#0a11d3" stroke-width="1" fill="none"></path></g><g stroke-linecap="round"><g transform="translate(228.26587736974182 442.4165028350689) rotate(0 44.48140943313268 47.66076201131665)" fill-rule="evenodd"><path d="M-1.57 1.53 L0.97 94.09 L1.88 99.66 L21.75 101.83 L45.3 102.94 L73.81 102.64 L82.39 99.52 L88.97 97.97 L86.11 -2.59 L87.85 -1.03 L85.24 -2.02 L78.65 -5.25 L43.56 -8.5 L9.46 -7.73 L3.63 -3.82 L-0.33 0.95" stroke="none" stroke-width="0" fill="#228be6" fill-rule="evenodd"></path><path d="M1.07 -1.13 C0.93 13.23, -0.5 68.93, -0.67 85.05 C-0.85 101.17, -0.88 93.12, 0.01 95.57 C0.9 98.02, 1.08 98.29, 4.65 99.75 C8.22 101.22, 14.48 103.37, 21.42 104.36 C28.36 105.34, 37.61 105.95, 46.27 105.66 C54.94 105.36, 66.91 103.72, 73.39 102.58 C79.88 101.44, 82.91 100.02, 85.19 98.8 C87.47 97.57, 86.64 97.25, 87.06 95.22 C87.48 93.19, 87.41 101.31, 87.71 86.6 C88.02 71.89, 89.02 21.32, 88.9 6.96 C88.79 -7.41, 88.19 2.38, 87.04 0.4 C85.89 -1.58, 84.79 -3.52, 82 -4.93 C79.2 -6.34, 76.64 -7.28, 70.27 -8.05 C63.9 -8.82, 51.95 -9.68, 43.77 -9.54 C35.59 -9.41, 28.03 -8.25, 21.18 -7.23 C14.33 -6.21, 6.32 -4.66, 2.68 -3.44 C-0.96 -2.22, -0.11 -0.28, -0.67 0.11 C-1.23 0.5, -0.76 -0.94, -0.68 -1.1 M0.18 0.89 C0.38 15.46, 1.69 70.08, 1.53 86.06 C1.37 102.04, -1.33 94.3, -0.76 96.74 C-0.19 99.18, 1.4 99.29, 4.95 100.69 C8.5 102.08, 13.47 104.38, 20.53 105.11 C27.59 105.84, 38.93 105.15, 47.32 105.08 C55.71 105.01, 64.18 105.77, 70.87 104.67 C77.55 103.58, 84.45 100.28, 87.41 98.48 C90.36 96.68, 88.47 95.99, 88.61 93.87 C88.75 91.76, 88.06 100.15, 88.24 85.8 C88.43 71.46, 89.58 22.04, 89.72 7.81 C89.86 -6.43, 90.29 2.66, 89.06 0.36 C87.82 -1.93, 85.54 -4.42, 82.32 -5.94 C79.11 -7.46, 76.65 -8.04, 69.76 -8.78 C62.88 -9.51, 48.9 -10.26, 41 -10.35 C33.09 -10.44, 28.43 -10.61, 22.35 -9.31 C16.27 -8.02, 8 -4.21, 4.51 -2.56 C1.01 -0.92, 1.92 0.37, 1.37 0.57 C0.83 0.76, 1.44 -1.43, 1.24 -1.42" stroke="#0a11d3" stroke-width="1" fill="none"></path></g></g><g stroke-linecap="round"><g transform="translate(228.95323895923923 507.70663086585654) rotate(0 43.61586279383067 4.104380556672822)"><path d="M-1.13 -0.97 C-0.73 -0.49, -0.88 2.53, 1.32 3.9 C3.53 5.28, 8.07 6.23, 12.08 7.29 C16.09 8.35, 19.51 10.04, 25.38 10.27 C31.26 10.49, 39.56 8.85, 47.32 8.64 C55.07 8.43, 65.65 10.01, 71.91 9.02 C78.17 8.03, 82.13 4.41, 84.87 2.69 C87.61 0.97, 87.78 -0.69, 88.36 -1.29 M0.47 1.14 C1.34 2.33, 1.73 4.19, 3.51 5.44 C5.29 6.69, 7.51 8.19, 11.17 8.66 C14.83 9.14, 19.62 8.29, 25.46 8.29 C31.3 8.29, 38.77 8.63, 46.21 8.66 C53.66 8.69, 63.61 9.15, 70.12 8.47 C76.64 7.79, 82.42 6.34, 85.29 4.58 C88.17 2.83, 87.13 -1.5, 87.37 -2.07" stroke="#0a11d3" stroke-width="1" fill="none"></path></g></g><g stroke-linecap="round"><g transform="translate(227.85949744717766 474.6324763037848) rotate(0 44.34677837043671 5.036058199117406)"><path d="M-0.97 -1 C-0.76 -0.21, 0.08 2.32, 2.32 3.63 C4.56 4.94, 8.38 5.81, 12.47 6.85 C16.55 7.89, 21.24 9.3, 26.81 9.86 C32.39 10.42, 38.39 10.59, 45.92 10.22 C53.45 9.86, 65.54 8.78, 71.97 7.67 C78.4 6.55, 81.91 4.88, 84.49 3.54 C87.07 2.2, 86.91 0.4, 87.47 -0.38 M0.73 1.08 C0.68 2.16, -0.46 3.87, 1.37 5.02 C3.21 6.17, 7.99 7.56, 11.76 8 C15.52 8.44, 17.98 7.15, 23.98 7.67 C29.97 8.18, 40.03 11.29, 47.74 11.08 C55.44 10.87, 64.05 7.88, 70.21 6.41 C76.38 4.93, 81.47 3.41, 84.71 2.23 C87.96 1.05, 88.84 -0.45, 89.66 -0.68" stroke="#0a11d3" stroke-width="1" fill="none"></path></g></g><g stroke-linecap="round" transform="translate(226.7386747610159 434.3918066079722) rotate(0 43.82537305427098 8.863351988406805)"><path d="M52.5 0.45 C61.1 0.47, 71.09 0.95, 76.93 2.36 C82.78 3.77, 87.59 6.8, 87.57 8.93 C87.55 11.06, 82.86 13.84, 76.81 15.14 C70.76 16.43, 60.35 16.31, 51.27 16.69 C42.18 17.07, 30.34 18.18, 22.31 17.42 C14.29 16.66, 6.33 13.95, 3.12 12.15 C-0.1 10.34, -0.16 8.52, 3.04 6.59 C6.23 4.65, 13.16 1.47, 22.27 0.54 C31.39 -0.4, 51.26 0.78, 57.72 0.96 C64.17 1.14, 61.42 1.53, 60.99 1.6 M53.89 -0.52 C62.87 -0.18, 74.14 3.33, 79.57 5.03 C85.01 6.74, 87.18 8.21, 86.5 9.71 C85.83 11.21, 81.65 12.53, 75.51 14.04 C69.38 15.55, 59.28 18.57, 49.69 18.77 C40.1 18.97, 26 16.5, 18 15.25 C10 14, 3.99 12.98, 1.67 11.25 C-0.64 9.53, 0.18 6.81, 4.13 4.88 C8.07 2.96, 17.1 0.25, 25.35 -0.29 C33.61 -0.83, 48.82 1.43, 53.66 1.66 C58.51 1.9, 54.51 0.95, 54.4 1.11" stroke="none" stroke-width="0" fill="#fff"></path><path d="M39.67 0.64 C48.35 0.48, 59.51 1.3, 67.33 2.19 C75.15 3.08, 83.91 4.27, 86.59 5.97 C89.27 7.68, 87.36 10.61, 83.4 12.42 C79.43 14.23, 71.13 16.09, 62.78 16.84 C54.44 17.6, 42.22 17.42, 33.33 16.94 C24.44 16.45, 15.06 15.26, 9.45 13.94 C3.85 12.61, -0.74 10.87, -0.29 8.96 C0.15 7.06, 4.85 4.12, 12.11 2.48 C19.36 0.84, 37.27 -0.41, 43.25 -0.86 C49.22 -1.3, 47.94 -0.56, 47.94 -0.19 M24.66 0.06 C32.14 -0.75, 43.97 -0.39, 52.89 0 C61.8 0.4, 72.18 0.72, 78.15 2.45 C84.12 4.17, 89.33 8.19, 88.7 10.35 C88.07 12.52, 80.87 14.05, 74.35 15.45 C67.83 16.85, 58.94 18.82, 49.56 18.74 C40.18 18.66, 26.28 16.03, 18.08 14.97 C9.88 13.9, 2.81 13.75, 0.37 12.35 C-2.07 10.95, -0.38 8.32, 3.45 6.56 C7.28 4.8, 19.7 2.97, 23.36 1.81 C27.03 0.65, 25.1 -0.42, 25.45 -0.39" stroke="#0a11d3" stroke-width="1" fill="none"></path></g><g stroke-linecap="round" transform="translate(298.2484070615967 458.9676094851058) rotate(0 6.423028523489961 6.97095218120802)"><path d="M8.99 -0.43 C10.04 -0.09, 10.51 2.08, 11.12 3.5 C11.74 4.93, 12.69 6.56, 12.66 8.12 C12.63 9.68, 12.16 11.72, 10.95 12.85 C9.74 13.98, 6.7 14.89, 5.4 14.9 C4.11 14.92, 4 14.05, 3.17 12.94 C2.35 11.83, 0.69 9.87, 0.46 8.25 C0.23 6.62, 1.24 4.38, 1.79 3.19 C2.33 2, 2.31 1.53, 3.73 1.1 C5.14 0.66, 9.02 0.55, 10.26 0.57 C11.51 0.6, 11.33 1, 11.2 1.25 M4.08 0.57 C5.35 0.03, 9.22 -0.95, 10.63 -0.35 C12.04 0.26, 12.37 2.48, 12.53 4.21 C12.7 5.94, 11.87 8.87, 11.64 10.05 C11.4 11.24, 12.26 10.7, 11.12 11.33 C9.98 11.96, 6.35 13.7, 4.79 13.85 C3.22 14, 2.6 13.13, 1.73 12.2 C0.87 11.28, -0.09 9.97, -0.38 8.31 C-0.66 6.65, -1.09 3.53, 0.02 2.23 C1.13 0.93, 5.34 0.86, 6.27 0.5 C7.19 0.14, 5.53 -0.1, 5.57 0.06" stroke="none" stroke-width="0" fill="#fff"></path><path d="M7.28 -0.58 C8.76 -0.63, 10.64 1.62, 11.5 2.61 C12.36 3.61, 12.38 4.16, 12.44 5.4 C12.51 6.63, 12.56 8.71, 11.89 10.02 C11.21 11.33, 9.82 12.55, 8.41 13.24 C7 13.94, 4.73 14.77, 3.41 14.2 C2.09 13.63, 0.95 11.25, 0.51 9.82 C0.07 8.39, 0.49 6.95, 0.77 5.61 C1.06 4.26, 1.25 2.53, 2.22 1.75 C3.19 0.98, 5.66 1.16, 6.59 0.97 C7.51 0.78, 7.53 0.8, 7.74 0.61 M6.23 -1.34 C7.62 -1.49, 9.87 -0.41, 10.78 1.08 C11.68 2.57, 11.36 6.13, 11.65 7.61 C11.95 9.08, 13.07 8.75, 12.54 9.93 C12 11.12, 9.75 14.39, 8.45 14.71 C7.14 15.03, 6.22 12.91, 4.7 11.87 C3.17 10.82, -0.13 9.63, -0.7 8.45 C-1.27 7.27, 0.46 6.19, 1.26 4.8 C2.05 3.41, 2.97 0.8, 4.09 0.11 C5.2 -0.59, 7.72 0.78, 7.97 0.63 C8.23 0.48, 5.71 -0.72, 5.6 -0.79" stroke="#0a11d3" stroke-width="1" fill="none"></path></g><g stroke-linecap="round" transform="translate(298.2484070615967 489.5700633441663) rotate(0 6.423028523489961 6.97095218120802)"><path d="M6.62 -0.81 C7.84 -0.72, 10.24 1.02, 11.25 2.39 C12.26 3.76, 12.58 6.06, 12.68 7.41 C12.78 8.76, 12.53 9.27, 11.84 10.5 C11.15 11.72, 9.85 14.29, 8.53 14.78 C7.22 15.26, 5.26 14.15, 3.93 13.4 C2.6 12.65, 1.19 11.83, 0.56 10.27 C-0.06 8.71, -0.39 5.5, 0.17 4.03 C0.72 2.57, 2.48 1.96, 3.89 1.5 C5.3 1.04, 7.64 1.23, 8.63 1.27 C9.61 1.31, 9.67 1.83, 9.78 1.74 M9.41 2.01 C10.54 2.68, 10.6 3.23, 11.16 4.18 C11.71 5.13, 12.7 6.13, 12.73 7.71 C12.77 9.3, 12.72 12.84, 11.35 13.72 C9.99 14.59, 6.12 13.25, 4.54 12.95 C2.96 12.64, 2.58 12.84, 1.89 11.89 C1.2 10.95, 0.41 8.95, 0.42 7.28 C0.43 5.61, 1.35 2.79, 1.95 1.86 C2.55 0.92, 2.79 1.77, 4.02 1.67 C5.25 1.58, 8.56 1.2, 9.34 1.29 C10.13 1.37, 8.71 2.13, 8.71 2.19" stroke="none" stroke-width="0" fill="#fff"></path><path d="M4.96 0.8 C6.22 0.36, 9.47 0.04, 10.62 0.72 C11.77 1.4, 11.7 3.39, 11.87 4.88 C12.05 6.37, 12.14 8.37, 11.67 9.66 C11.2 10.94, 10.01 11.93, 9.05 12.58 C8.08 13.23, 7.2 13.69, 5.86 13.57 C4.51 13.45, 1.93 13.06, 0.98 11.87 C0.03 10.67, -0.01 8.15, 0.15 6.41 C0.32 4.67, 0.79 2.57, 1.98 1.44 C3.17 0.3, 6.38 -0.27, 7.3 -0.39 C8.22 -0.51, 7.78 0.5, 7.48 0.72 M3.4 -0.02 C4.43 -0.52, 6.45 -1.34, 8.11 -0.52 C9.78 0.31, 12.83 3.31, 13.39 4.94 C13.96 6.57, 11.89 7.77, 11.51 9.24 C11.12 10.71, 12.25 13.19, 11.08 13.76 C9.91 14.33, 6.24 12.79, 4.48 12.65 C2.71 12.51, 1.28 13.54, 0.5 12.91 C-0.29 12.27, -0.18 10.35, -0.25 8.84 C-0.32 7.33, -0.86 5.54, 0.07 3.86 C1.01 2.18, 4.74 -0.69, 5.37 -1.23 C6 -1.77, 3.99 0.31, 3.84 0.65" stroke="#0a11d3" stroke-width="1" fill="none"></path></g><g stroke-linecap="round" transform="translate(298.2484070615967 522.830864518663) rotate(0 6.423028523489961 6.97095218120802)"><path d="M6.87 0.09 C8.11 0.42, 10.35 1.26, 11.43 2.53 C12.5 3.8, 13.51 6.03, 13.32 7.71 C13.12 9.39, 11.1 11.47, 10.26 12.61 C9.41 13.76, 9.39 14.5, 8.25 14.57 C7.1 14.64, 4.56 13.98, 3.38 13.04 C2.2 12.09, 1.77 10.23, 1.19 8.9 C0.61 7.57, -0.58 6.47, -0.11 5.05 C0.35 3.63, 2.32 1.22, 3.97 0.39 C5.63 -0.43, 8.74 -0.17, 9.81 0.11 C10.89 0.39, 10.67 1.74, 10.44 2.08 M6.92 -0.98 C8.37 -1.31, 9.29 -0.02, 10.07 1.14 C10.84 2.3, 11 4.81, 11.56 5.98 C12.13 7.15, 13.99 6.98, 13.48 8.16 C12.96 9.34, 9.88 12.06, 8.47 13.07 C7.06 14.07, 6.27 14.33, 5.02 14.18 C3.77 14.02, 2.01 13.46, 0.97 12.11 C-0.06 10.77, -1.54 7.67, -1.19 6.09 C-0.85 4.5, 1.82 3.66, 3.05 2.6 C4.28 1.55, 5.54 0.08, 6.19 -0.22 C6.85 -0.52, 7.02 0.44, 6.99 0.78" stroke="none" stroke-width="0" fill="#fff"></path><path d="M10 1.5 C11.05 2.04, 11.52 2.38, 11.96 3.5 C12.39 4.62, 12.95 6.74, 12.63 8.23 C12.32 9.71, 11.29 11.32, 10.05 12.39 C8.8 13.47, 6.58 14.85, 5.17 14.69 C3.75 14.52, 2.32 12.6, 1.56 11.42 C0.81 10.23, 0.73 8.95, 0.63 7.57 C0.53 6.19, 0.38 4.24, 0.95 3.16 C1.52 2.08, 2.62 1.39, 4.04 1.08 C5.47 0.78, 8.37 1.38, 9.52 1.33 C10.67 1.28, 10.89 0.8, 10.93 0.78 M6.61 -1.02 C7.87 -0.59, 8.52 2.07, 9.7 3.09 C10.89 4.12, 13.3 3.65, 13.72 5.11 C14.13 6.57, 12.95 10.65, 12.21 11.84 C11.47 13.04, 10.88 12.27, 9.27 12.29 C7.67 12.31, 3.82 12.39, 2.56 11.97 C1.29 11.54, 1.85 11.06, 1.67 9.77 C1.49 8.47, 1.15 5.51, 1.46 4.2 C1.77 2.9, 2.88 2.79, 3.54 1.94 C4.19 1.08, 4.8 -0.57, 5.4 -0.95 C5.99 -1.33, 6.91 -0.73, 7.13 -0.36" stroke="#0a11d3" stroke-width="1" fill="none"></path></g><g stroke-linecap="round"><g transform="translate(404.2658773697417 355.41650283506885) rotate(0 44.23897687535293 48.108488923908425)" fill-rule="evenodd"><path d="M-1.68 -1.84 L1.11 95.22 L2.97 96.89 L21.52 104.46 L45.03 103.49 L72.83 102.31 L80.57 101.74 L89.23 97.85 L88.91 -0.73 L85.72 -2.16 L85.23 -2.91 L76.87 -4.98 L43.66 -10.93 L13.15 -4.02 L5.16 -2.93 L0.33 1.76" stroke="none" stroke-width="0" fill="#228be6" fill-rule="evenodd"></path><path d="M1.1 0.69 C1.01 15.24, -0.39 71.14, -0.42 86.93 C-0.44 102.72, 0.26 93.23, 0.95 95.43 C1.64 97.63, 0.66 98.75, 3.74 100.14 C6.83 101.52, 12.35 103.07, 19.48 103.74 C26.61 104.4, 37.54 104.29, 46.53 104.12 C55.51 103.95, 66.9 103.51, 73.4 102.74 C79.91 101.96, 83.1 100.81, 85.55 99.48 C88 98.16, 87.58 97, 88.08 94.79 C88.58 92.58, 88.39 100.91, 88.55 86.23 C88.7 71.56, 89.15 21.08, 89.02 6.75 C88.89 -7.57, 89.13 2.12, 87.75 0.28 C86.36 -1.57, 83.8 -3.14, 80.72 -4.33 C77.64 -5.51, 75.72 -5.88, 69.27 -6.85 C62.82 -7.83, 50.12 -9.87, 42.03 -10.18 C33.94 -10.48, 27.25 -9.91, 20.72 -8.67 C14.18 -7.44, 6.17 -4.06, 2.84 -2.77 C-0.5 -1.48, 1.09 -1.54, 0.68 -0.95 C0.26 -0.35, 0.33 0.81, 0.36 0.79 M0.22 0.01 C0.51 14.25, 1.85 69.18, 1.93 85.27 C2 101.35, 0.4 93.86, 0.67 96.53 C0.95 99.2, 0.15 100, 3.57 101.27 C7 102.55, 13.87 103.31, 21.22 104.17 C28.58 105.02, 39.42 106.88, 47.7 106.39 C55.98 105.91, 64.78 102.4, 70.88 101.25 C76.98 100.11, 81.69 100.26, 84.29 99.53 C86.89 98.8, 85.63 98.65, 86.5 96.88 C87.37 95.11, 89.56 103.8, 89.51 88.9 C89.47 74, 86.75 22.28, 86.24 7.49 C85.73 -7.3, 87.45 2.26, 86.47 0.18 C85.49 -1.91, 83.41 -3.83, 80.37 -5.02 C77.33 -6.21, 74.63 -6.52, 68.24 -6.96 C61.84 -7.4, 49.77 -7.5, 42 -7.65 C34.24 -7.8, 27.85 -8.27, 21.64 -7.86 C15.43 -7.45, 8.39 -6.33, 4.75 -5.2 C1.1 -4.06, 0.7 -2.16, -0.23 -1.05 C-1.16 0.06, -1.17 1.25, -0.84 1.45" stroke="#0a11d3" stroke-width="1" fill="none"></path></g></g><g stroke-linecap="round"><g transform="translate(404.9532389592391 420.7066308658564) rotate(0 44.324046833269904 4.372540368170462)"><path d="M0.69 -0.71 C1.28 -0.08, 1.33 3.66, 3.2 4.84 C5.08 6.02, 8.18 5.8, 11.94 6.38 C15.7 6.96, 19.97 7.91, 25.77 8.33 C31.56 8.74, 39.26 8.78, 46.7 8.89 C54.13 9.01, 63.99 10, 70.37 9.03 C76.76 8.05, 81.92 4.6, 85.03 3.05 C88.14 1.5, 88.56 0.25, 89.05 -0.27 M-0.4 1.54 C0.13 2.35, 0.82 2.25, 2.72 3.21 C4.61 4.17, 7.07 6.32, 10.96 7.28 C14.84 8.24, 20.33 8.69, 26.04 8.99 C31.76 9.28, 37.7 9.13, 45.27 9.05 C52.83 8.96, 64.73 9.14, 71.44 8.49 C78.15 7.83, 82.7 6.63, 85.53 5.13 C88.36 3.63, 87.71 0.55, 88.41 -0.52" stroke="#0a11d3" stroke-width="1" fill="none"></path></g></g><g stroke-linecap="round"><g transform="translate(403.85949744717755 387.6324763037847) rotate(0 43.890635701624205 4.52141040257402)"><path d="M-0.71 0.88 C-0.35 1.34, 1.22 2.43, 3.26 3.49 C5.31 4.55, 7.96 6.28, 11.56 7.24 C15.16 8.2, 19.1 9, 24.87 9.24 C30.64 9.48, 38.32 8.92, 46.17 8.69 C54.02 8.45, 65.53 8.57, 71.98 7.82 C78.43 7.08, 82.1 5.67, 84.85 4.23 C87.6 2.79, 87.85 0.14, 88.49 -0.81 M1.12 0.29 C1.31 0.86, 0.65 3.42, 2.8 4.8 C4.96 6.19, 10.39 7.66, 14.04 8.59 C17.68 9.51, 18.99 10.36, 24.67 10.38 C30.36 10.4, 40.53 9.35, 48.12 8.73 C55.72 8.11, 64.04 7.55, 70.23 6.65 C76.42 5.74, 82.37 4.6, 85.26 3.27 C88.15 1.94, 87.23 -0.83, 87.56 -1.34" stroke="#0a11d3" stroke-width="1" fill="none"></path></g></g><g stroke-linecap="round" transform="translate(402.7386747610158 347.39180660797217) rotate(0 43.825373054270926 8.863351988406833)"><path d="M42.8 -0.92 C51.88 -1.02, 64.36 1.44, 71.79 2.83 C79.22 4.22, 85.58 5.55, 87.39 7.4 C89.2 9.25, 87.24 12.39, 82.67 13.91 C78.11 15.42, 68.63 15.84, 60.01 16.5 C51.4 17.15, 39.93 18.22, 30.97 17.84 C22.01 17.46, 11.42 15.9, 6.23 14.22 C1.05 12.54, -1.58 9.83, -0.12 7.76 C1.34 5.68, 7.15 3.12, 15 1.78 C22.86 0.44, 41.29 -0.06, 47.02 -0.27 C52.75 -0.48, 49.39 0.43, 49.37 0.5 M48.61 1.12 C57.3 1.16, 66.79 0.45, 73.25 1.59 C79.72 2.73, 86.25 5.99, 87.41 7.97 C88.57 9.96, 85.43 12.14, 80.23 13.52 C75.03 14.89, 65.44 15.41, 56.21 16.22 C46.98 17.02, 33.46 18.8, 24.84 18.32 C16.22 17.84, 8.43 15.03, 4.48 13.32 C0.54 11.61, -1.28 9.95, 1.15 8.06 C3.59 6.18, 11.2 3.5, 19.09 2.02 C26.99 0.54, 43.65 -0.46, 48.5 -0.81 C53.36 -1.17, 48.22 -0.3, 48.21 -0.12" stroke="none" stroke-width="0" fill="#fff"></path><path d="M35.51 0.19 C44.25 -0.33, 56.98 -0.27, 65.36 0.64 C73.74 1.54, 82.58 3.63, 85.79 5.61 C89.01 7.59, 87.96 10.74, 84.64 12.51 C81.32 14.28, 73.91 15.54, 65.89 16.24 C57.87 16.94, 45.66 17.08, 36.53 16.74 C27.41 16.39, 17.19 15.4, 11.14 14.17 C5.09 12.95, 0.52 11.18, 0.22 9.38 C-0.08 7.58, 1.32 4.9, 9.34 3.37 C17.35 1.84, 39.85 0.76, 48.32 0.19 C56.79 -0.37, 60.17 -0.05, 60.15 -0.04 M25.97 1.12 C33.97 0.36, 49.11 1.2, 58.02 1.48 C66.93 1.77, 74.78 1.25, 79.43 2.84 C84.07 4.44, 86.94 8.74, 85.89 11.04 C84.84 13.35, 80.02 15.41, 73.14 16.67 C66.26 17.94, 53.84 18.99, 44.61 18.62 C35.37 18.24, 25.14 15.69, 17.72 14.43 C10.29 13.16, 2.28 12.68, 0.06 11.05 C-2.15 9.42, -0.14 6.22, 4.45 4.67 C9.05 3.12, 23.74 2.3, 27.65 1.76 C31.57 1.23, 27.67 1.74, 27.93 1.47" stroke="#0a11d3" stroke-width="1" fill="none"></path></g><g stroke-linecap="round" transform="translate(474.2484070615967 371.9676094851057) rotate(0 6.423028523489961 6.970952181208077)"><path d="M4.97 0.99 C6.35 0.82, 9.74 1.24, 11.08 1.97 C12.42 2.7, 12.67 4.07, 13.01 5.37 C13.35 6.66, 13.86 8.3, 13.11 9.74 C12.36 11.18, 9.83 13.42, 8.52 14.01 C7.21 14.6, 6.39 13.89, 5.27 13.28 C4.16 12.68, 2.66 11.47, 1.8 10.39 C0.95 9.31, 0.22 8.06, 0.16 6.81 C0.09 5.55, 0.37 4.08, 1.41 2.86 C2.46 1.64, 5.38 -0.23, 6.44 -0.51 C7.5 -0.79, 7.84 0.95, 7.77 1.18 M7.69 -1.41 C9 -1.66, 8.88 0.41, 9.71 1.7 C10.55 2.99, 12.4 4.71, 12.7 6.34 C13 7.96, 12.41 10.37, 11.5 11.47 C10.59 12.56, 8.26 12.55, 7.25 12.93 C6.25 13.31, 6.43 14.23, 5.47 13.74 C4.5 13.25, 2.1 11.26, 1.45 10 C0.8 8.73, 1.36 7.38, 1.58 6.15 C1.81 4.91, 2.13 3.46, 2.82 2.57 C3.52 1.69, 5.18 1.03, 5.76 0.85 C6.33 0.67, 6.25 1.51, 6.27 1.51" stroke="none" stroke-width="0" fill="#fff"></path><path d="M4.38 0 C5.49 -0.3, 6.93 0.71, 8.17 1.25 C9.41 1.78, 10.95 2.02, 11.82 3.21 C12.68 4.41, 13.62 6.86, 13.35 8.44 C13.07 10.02, 11.49 11.63, 10.17 12.7 C8.86 13.76, 6.85 14.87, 5.46 14.83 C4.07 14.79, 2.64 13.73, 1.83 12.46 C1.01 11.18, 0.71 8.75, 0.6 7.16 C0.48 5.56, 0.34 4.13, 1.12 2.87 C1.89 1.61, 4.61 0.06, 5.26 -0.42 C5.92 -0.9, 5.16 -0.09, 5.04 -0.01 M9.27 1.48 C10.54 1.89, 12.79 1.38, 13.16 2.31 C13.52 3.23, 11.74 5.38, 11.45 7.03 C11.15 8.67, 12.06 11.21, 11.4 12.18 C10.74 13.15, 8.88 12.75, 7.48 12.84 C6.09 12.94, 4.52 13.74, 3.03 12.76 C1.55 11.79, -1.1 8.65, -1.4 6.99 C-1.7 5.33, 0.29 3.79, 1.24 2.78 C2.2 1.76, 2.88 1.21, 4.33 0.91 C5.77 0.62, 9.06 0.98, 9.91 1.01 C10.75 1.03, 9.85 1.26, 9.4 1.06" stroke="#0a11d3" stroke-width="1" fill="none"></path></g><g stroke-linecap="round" transform="translate(474.2484070615967 402.57006334416616) rotate(0 6.423028523489961 6.970952181208077)"><path d="M8.89 1.14 C10.22 1.61, 11.6 2.02, 12.28 3.21 C12.97 4.4, 13.23 6.96, 13 8.29 C12.76 9.62, 11.73 10.16, 10.87 11.19 C10.01 12.22, 9.25 14.07, 7.85 14.45 C6.45 14.82, 3.81 14.34, 2.46 13.44 C1.1 12.55, -0.05 10.7, -0.29 9.07 C-0.53 7.45, 0.24 5.13, 1.02 3.69 C1.8 2.25, 3.22 0.95, 4.41 0.45 C5.6 -0.06, 7.17 0.72, 8.14 0.68 C9.12 0.64, 10.16 0.12, 10.24 0.2 M2.98 -0.62 C3.99 -1.35, 7.15 -0.23, 8.73 0.41 C10.31 1.06, 11.65 2.13, 12.46 3.26 C13.26 4.38, 14.01 5.41, 13.56 7.17 C13.11 8.94, 10.93 12.6, 9.76 13.84 C8.59 15.08, 7.85 14.65, 6.54 14.62 C5.22 14.58, 2.85 14.68, 1.87 13.64 C0.89 12.6, 0.62 10.24, 0.65 8.38 C0.67 6.52, 1.25 3.87, 2.02 2.48 C2.78 1.08, 4.61 0.47, 5.24 0.03 C5.87 -0.42, 5.89 -0.55, 5.8 -0.19" stroke="none" stroke-width="0" fill="#fff"></path><path d="M6.19 -0.55 C7.75 -0.65, 10.42 0.34, 11.45 1.52 C12.49 2.7, 12.3 5.08, 12.4 6.54 C12.51 8, 12.66 9.27, 12.06 10.3 C11.46 11.33, 9.97 12.26, 8.79 12.72 C7.61 13.18, 6.27 13.39, 4.97 13.07 C3.67 12.76, 1.96 12.04, 1 10.83 C0.04 9.62, -0.94 7.33, -0.79 5.8 C-0.64 4.28, 0.69 2.78, 1.89 1.66 C3.09 0.55, 5.53 -0.53, 6.42 -0.89 C7.3 -1.24, 7.25 -0.87, 7.2 -0.47 M9.32 1.39 C10.54 1.44, 10.1 0.69, 10.45 1.94 C10.8 3.19, 11.41 6.97, 11.42 8.87 C11.43 10.77, 11.47 12.37, 10.51 13.36 C9.54 14.36, 6.86 15.22, 5.63 14.83 C4.4 14.45, 4.2 12.06, 3.13 11.05 C2.06 10.04, -0.32 10.01, -0.81 8.78 C-1.3 7.55, -0.69 4.87, 0.2 3.68 C1.09 2.48, 3.07 2.08, 4.51 1.63 C5.95 1.18, 8.14 1.37, 8.84 0.95 C9.54 0.53, 9.07 -0.86, 8.72 -0.88" stroke="#0a11d3" stroke-width="1" fill="none"></path></g><g stroke-linecap="round" transform="translate(474.2484070615967 435.83086451866285) rotate(0 6.423028523489961 6.970952181208077)"><path d="M8.89 0.89 C10.39 1, 11.17 1.95, 11.97 3 C12.78 4.06, 13.96 5.63, 13.71 7.21 C13.47 8.79, 11.49 11.45, 10.48 12.49 C9.48 13.54, 8.84 13.53, 7.68 13.49 C6.52 13.44, 4.74 12.9, 3.53 12.22 C2.31 11.55, 0.97 10.62, 0.39 9.42 C-0.19 8.21, -0.44 6.55, 0.05 5.02 C0.53 3.48, 1.76 0.78, 3.29 0.2 C4.82 -0.38, 8.26 1.31, 9.25 1.52 C10.24 1.74, 9.31 1.62, 9.23 1.47 M7.89 0.47 C8.94 1.23, 11.3 2.65, 12.04 4.12 C12.77 5.59, 12.78 8.02, 12.3 9.31 C11.82 10.59, 9.94 11.02, 9.15 11.84 C8.36 12.66, 8.63 14.23, 7.57 14.23 C6.5 14.22, 3.78 12.79, 2.77 11.83 C1.76 10.87, 1.74 9.73, 1.51 8.47 C1.28 7.22, 1.03 5.52, 1.39 4.3 C1.74 3.09, 2.44 1.58, 3.63 1.17 C4.82 0.77, 7.79 1.96, 8.54 1.89 C9.29 1.82, 7.93 0.9, 8.13 0.76" stroke="none" stroke-width="0" fill="#fff"></path><path d="M3.67 1.21 C4.82 0.64, 6.9 -0.35, 8.39 0.05 C9.88 0.45, 11.92 2.22, 12.6 3.63 C13.28 5.03, 12.93 6.89, 12.45 8.49 C11.97 10.08, 10.77 12.24, 9.7 13.19 C8.63 14.13, 7.19 14.46, 6.04 14.16 C4.9 13.86, 3.77 12.48, 2.82 11.4 C1.86 10.32, 0.61 9.08, 0.3 7.67 C0 6.26, 0.38 4.2, 0.99 2.93 C1.6 1.66, 3.32 0.62, 3.96 0.04 C4.61 -0.55, 4.58 -0.82, 4.89 -0.58 M5.15 -0.9 C6.05 -1.89, 5.92 -1.67, 7.21 -1.01 C8.51 -0.35, 11.78 1.75, 12.92 3.07 C14.06 4.39, 14.27 5.3, 14.04 6.92 C13.82 8.54, 13.06 11.79, 11.57 12.8 C10.08 13.81, 6.59 13.12, 5.11 12.97 C3.63 12.82, 3.54 12.58, 2.69 11.9 C1.84 11.23, 0.16 10.21, 0.03 8.91 C-0.11 7.62, 1.09 5.47, 1.88 4.14 C2.66 2.8, 4.56 1.72, 4.72 0.91 C4.87 0.09, 2.89 -0.77, 2.8 -0.75" stroke="#0a11d3" stroke-width="1" fill="none"></path></g><g stroke-linecap="round" transform="translate(168.59588100937822 10) rotate(0 63.9419178660695 38.26851694988882)"><path d="M0.74 0.84 C40.23 -2.74, 81.43 0.25, 129.41 -0.57 M-0.44 0.93 C46.38 1.84, 90.87 1.12, 128.28 0.45 M128.88 1.8 C128.04 24.31, 126.96 45.48, 128.72 78.28 M128.36 0.18 C127.4 16.56, 127.51 33.8, 127.6 75.54 M127.38 75.67 C94.55 75.68, 59.69 75.53, 1.07 76.84 M127.96 76.52 C96.87 77.97, 67.38 76.86, -0.29 76.05 M-1.76 75.25 C-0.06 47.53, 0.7 15.13, -0.79 -0.16 M0.2 76.92 C0.31 49.55, 1.01 23.53, -0.81 -0.38" stroke="#000000" stroke-width="1" fill="none"></path></g><g stroke-linecap="round"><g transform="translate(167.520283258483 20.716534392244284) rotate(0 63.889021984583735 -0.2058904342353287)"><path d="M0.44 0.5 C21.7 0.16, 107.16 -0.98, 128.56 -0.91 M-0.78 -0.28 C20.21 0.01, 105.98 0.26, 127.46 0.14" stroke="#000000" stroke-width="1" fill="none"></path></g></g><g stroke-linecap="round" transform="translate(173.0839164783331 14.27156980000882) rotate(0 2.5009765625 2.5009765625)"><path d="M4.11 0.59 C4.52 0.93, 4.87 1.54, 4.96 2.07 C5.06 2.59, 4.93 3.29, 4.67 3.75 C4.4 4.22, 3.86 4.67, 3.36 4.85 C2.85 5.03, 2.15 5.03, 1.65 4.85 C1.14 4.67, 0.6 4.22, 0.34 3.75 C0.07 3.29, -0.06 2.59, 0.04 2.07 C0.13 1.54, 0.48 0.93, 0.89 0.59 C1.3 0.24, 1.97 0, 2.5 0 C3.04 0, 3.7 0.24, 4.11 0.59" stroke="none" stroke-width="0" fill="#fa5252"></path><path d="M4.11 0.59 C4.52 0.93, 4.87 1.54, 4.96 2.07 C5.06 2.59, 4.93 3.29, 4.67 3.75 C4.4 4.22, 3.86 4.67, 3.36 4.85 C2.85 5.03, 2.15 5.03, 1.65 4.85 C1.14 4.67, 0.6 4.22, 0.34 3.75 C0.07 3.29, -0.06 2.59, 0.04 2.07 C0.13 1.54, 0.48 0.93, 0.89 0.59 C1.3 0.24, 1.97 0, 2.5 0 C3.04 0, 3.7 0.24, 4.11 0.59" stroke="#000000" stroke-width="1" fill="none"></path></g><g stroke-linecap="round" transform="translate(183.3466117908331 14.27156980000882) rotate(0 2.5009765625 2.5009765625)"><path d="M4.11 0.59 C4.52 0.93, 4.87 1.54, 4.96 2.07 C5.06 2.59, 4.93 3.29, 4.67 3.75 C4.4 4.22, 3.86 4.67, 3.36 4.85 C2.85 5.03, 2.15 5.03, 1.65 4.85 C1.14 4.67, 0.6 4.22, 0.34 3.75 C0.07 3.29, -0.06 2.59, 0.04 2.07 C0.13 1.54, 0.48 0.93, 0.89 0.59 C1.3 0.24, 1.97 0, 2.5 0 C3.04 0, 3.7 0.24, 4.11 0.59" stroke="none" stroke-width="0" fill="#fab005"></path><path d="M4.11 0.59 C4.52 0.93, 4.87 1.54, 4.96 2.07 C5.06 2.59, 4.93 3.29, 4.67 3.75 C4.4 4.22, 3.86 4.67, 3.36 4.85 C2.85 5.03, 2.15 5.03, 1.65 4.85 C1.14 4.67, 0.6 4.22, 0.34 3.75 C0.07 3.29, -0.06 2.59, 0.04 2.07 C0.13 1.54, 0.48 0.93, 0.89 0.59 C1.3 0.24, 1.97 0, 2.5 0 C3.04 0, 3.7 0.24, 4.11 0.59" stroke="#000000" stroke-width="1" fill="none"></path></g><g stroke-linecap="round" transform="translate(194.06002825717928 14.722290953855008) rotate(0 2.5009765625 2.5009765625)"><path d="M4.11 0.59 C4.52 0.93, 4.87 1.54, 4.96 2.07 C5.06 2.59, 4.93 3.29, 4.67 3.75 C4.4 4.22, 3.86 4.67, 3.36 4.85 C2.85 5.03, 2.15 5.03, 1.65 4.85 C1.14 4.67, 0.6 4.22, 0.34 3.75 C0.07 3.29, -0.06 2.59, 0.04 2.07 C0.13 1.54, 0.48 0.93, 0.89 0.59 C1.3 0.24, 1.97 0, 2.5 0 C3.04 0, 3.7 0.24, 4.11 0.59" stroke="none" stroke-width="0" fill="#40c057"></path><path d="M4.11 0.59 C4.52 0.93, 4.87 1.54, 4.96 2.07 C5.06 2.59, 4.93 3.29, 4.67 3.75 C4.4 4.22, 3.86 4.67, 3.36 4.85 C2.85 5.03, 2.15 5.03, 1.65 4.85 C1.14 4.67, 0.6 4.22, 0.34 3.75 C0.07 3.29, -0.06 2.59, 0.04 2.07 C0.13 1.54, 0.48 0.93, 0.89 0.59 C1.3 0.24, 1.97 0, 2.5 0 C3.04 0, 3.7 0.24, 4.11 0.59" stroke="#000000" stroke-width="1" fill="none"></path></g><g stroke-opacity="0.9" fill-opacity="0.9" stroke-linecap="round" transform="translate(210.0870892468065 30.77465983187085) rotate(0 21.360101269687846 21.36010126968786)"><path d="M16.85 -0.26 C20.73 -1.53, 25.99 -0.19, 30.13 2.01 C34.27 4.21, 39.75 8.78, 41.69 12.93 C43.63 17.08, 43.18 22.47, 41.77 26.91 C40.35 31.34, 37.08 36.86, 33.18 39.53 C29.27 42.2, 22.84 43.43, 18.33 42.93 C13.83 42.43, 9.25 40.01, 6.16 36.54 C3.06 33.06, 0.06 26.78, -0.21 22.07 C-0.47 17.36, 1.63 11.98, 4.56 8.28 C7.48 4.58, 14.75 1.12, 17.35 -0.14 C19.96 -1.4, 20.15 0.22, 20.18 0.71 M12.45 2.44 C16.33 0.01, 22.38 -0.81, 26.53 0.16 C30.68 1.12, 34.83 4.67, 37.37 8.21 C39.9 11.75, 41.9 17.08, 41.72 21.41 C41.54 25.73, 39.08 30.76, 36.27 34.15 C33.47 37.53, 29.48 41, 24.9 41.72 C20.31 42.43, 12.62 40.49, 8.76 38.45 C4.9 36.4, 3.1 33.66, 1.75 29.45 C0.41 25.24, -0.78 17.9, 0.68 13.18 C2.15 8.45, 8.55 2.77, 10.54 1.11 C12.54 -0.54, 12.32 2.61, 12.66 3.25" stroke="none" stroke-width="0" fill="#04aaf7"></path><path d="M28.6 0.56 C32.71 1.99, 37.37 7.94, 39.77 12.24 C42.16 16.54, 43.92 22.06, 42.97 26.36 C42.02 30.66, 37.72 35.23, 34.07 38.04 C30.41 40.84, 25.53 43.28, 21.04 43.16 C16.54 43.04, 10.52 40.34, 7.09 37.29 C3.65 34.24, 0.92 29.39, 0.43 24.86 C-0.06 20.33, 1.63 14.17, 4.13 10.13 C6.63 6.08, 10.57 1.57, 15.41 0.58 C20.26 -0.42, 29.53 3.2, 33.21 4.15 C36.89 5.1, 37.7 6.12, 37.5 6.26 M25.87 0.29 C30.1 1.07, 35.91 4.65, 38.47 8.31 C41.02 11.96, 41.24 17.63, 41.18 22.24 C41.12 26.84, 41.07 32.66, 38.09 35.94 C35.11 39.23, 28 41.5, 23.31 41.95 C18.63 42.39, 13.76 41.14, 9.99 38.6 C6.22 36.06, 1.92 30.98, 0.69 26.71 C-0.54 22.44, 0.9 16.99, 2.61 12.99 C4.32 8.99, 6.81 4.76, 10.94 2.71 C15.07 0.67, 24.81 1.24, 27.37 0.73 C29.93 0.23, 26.39 -0.58, 26.31 -0.32" stroke="#000000" stroke-width="1" fill="none"></path></g><g stroke-linecap="round"><g transform="translate(237.1652533087821 46.99901189632851) rotate(0 -3.4669568227483865 6.479860744560767)" fill-rule="evenodd"><path d="M0 0 L-1.83 -0.41 L-7.57 -6.27 L-9.75 -6.1 L-11.36 -4.35 L-12.61 2.37 L-11.27 6.74 L-17.42 8.89 L-18 11.42 L-17.2 13.64 L-15.01 14.04 L-12.38 13.35 L-8.7 9.48 L-3.62 17.87 L-1.49 19.38 L-0.42 18.17 L-3.78 4.8 L-1.52 3.64 L1.39 4.35 L3.16 5.87 L6.21 6.29 L9.24 5.87 L10.81 3.22 L10.8 0.63 L4.22 1.11 L5.49 -5.76 L4.23 -6.26 L2.47 -5.35 L-0.24 -0.92 L0 0" stroke="none" stroke-width="0" fill="#40c057" fill-rule="evenodd"></path><path d="M0 0 C-0.31 -0.07, -0.57 0.63, -1.83 -0.41 C-3.09 -1.46, -5.98 -5.62, -7.57 -6.27 C-9.16 -6.93, -10.52 -5.79, -11.36 -4.35 C-12.2 -2.91, -12.63 0.53, -12.61 2.37 C-12.6 4.22, -10.47 5.65, -11.27 6.74 C-12.07 7.83, -16.44 7.74, -17.42 8.89 C-18.41 10.04, -18.04 12.9, -17.2 13.64 C-16.36 14.39, -13.8 14.04, -12.38 13.35 C-10.96 12.66, -10.16 8.72, -8.7 9.48 C-7.24 10.23, -5 16.42, -3.62 17.87 C-2.24 19.32, -0.39 20.35, -0.42 18.17 C-0.44 15.99, -4.08 7.1, -3.78 4.8 C-3.48 2.5, 0.23 4.17, 1.39 4.35 C2.54 4.53, 1.85 5.61, 3.16 5.87 C4.47 6.12, 7.96 6.74, 9.24 5.87 C10.51 5, 11.64 1.43, 10.8 0.63 C9.97 -0.16, 5.11 2.18, 4.22 1.11 C3.34 0.04, 5.78 -4.68, 5.49 -5.76 C5.19 -6.84, 3.43 -6.15, 2.47 -5.35 C1.52 -4.54, 0.17 -1.81, -0.24 -0.92 C-0.65 -0.03, -0.04 -0.15, 0 0 M0 0 C-0.31 -0.07, -0.57 0.63, -1.83 -0.41 C-3.09 -1.46, -5.98 -5.62, -7.57 -6.27 C-9.16 -6.93, -10.52 -5.79, -11.36 -4.35 C-12.2 -2.91, -12.63 0.53, -12.61 2.37 C-12.6 4.22, -10.47 5.65, -11.27 6.74 C-12.07 7.83, -16.44 7.74, -17.42 8.89 C-18.41 10.04, -18.04 12.9, -17.2 13.64 C-16.36 14.39, -13.8 14.04, -12.38 13.35 C-10.96 12.66, -10.16 8.72, -8.7 9.48 C-7.24 10.23, -5 16.42, -3.62 17.87 C-2.24 19.32, -0.39 20.35, -0.42 18.17 C-0.44 15.99, -4.08 7.1, -3.78 4.8 C-3.48 2.5, 0.23 4.17, 1.39 4.35 C2.54 4.53, 1.85 5.61, 3.16 5.87 C4.47 6.12, 7.96 6.74, 9.24 5.87 C10.51 5, 11.64 1.43, 10.8 0.63 C9.97 -0.16, 5.11 2.18, 4.22 1.11 C3.34 0.04, 5.78 -4.68, 5.49 -5.76 C5.19 -6.84, 3.43 -6.15, 2.47 -5.35 C1.52 -4.54, 0.17 -1.81, -0.24 -0.92 C-0.65 -0.03, -0.04 -0.15, 0 0" stroke="#087f5b" stroke-width="1" fill="none"></path></g></g><g stroke-linecap="round"><g stroke-opacity="0.9" fill-opacity="0.9" transform="translate(211.14615172083404 51.73753339505197) rotate(0 21.36093062955922 -0.6978169480224778)"><path d="M0.92 -0.34 C8.05 -0.63, 36.11 -0.85, 42.78 -0.88 M-0.06 -1.56 C6.97 -1.81, 34.98 -0.16, 42.19 0.19" stroke="#000000" stroke-width="1" fill="none"></path></g></g><g stroke-linecap="round"><g stroke-opacity="0.9" fill-opacity="0.9" transform="translate(216.2414807506084 36.30300446808576) rotate(0 14.659303301924297 2.6275724513134264)"><path d="M0 0 C0.13 0.38, 0.09 1.58, 0.77 2.28 C1.46 2.97, 2.81 3.68, 4.1 4.19 C5.4 4.7, 6.64 5.13, 8.54 5.34 C10.43 5.55, 12.97 5.55, 15.48 5.45 C17.99 5.34, 21.44 5.28, 23.58 4.71 C25.72 4.14, 27.36 2.86, 28.32 2.03 C29.27 1.2, 29.15 0.12, 29.32 -0.26 M0 0 C0.13 0.38, 0.09 1.58, 0.77 2.28 C1.46 2.97, 2.81 3.68, 4.1 4.19 C5.4 4.7, 6.64 5.13, 8.54 5.34 C10.43 5.55, 12.97 5.55, 15.48 5.45 C17.99 5.34, 21.44 5.28, 23.58 4.71 C25.72 4.14, 27.36 2.86, 28.32 2.03 C29.27 1.2, 29.15 0.12, 29.32 -0.26" stroke="#000000" stroke-width="1" fill="none"></path></g></g><g stroke-opacity="0.9" fill-opacity="0.9" stroke-linecap="round" transform="translate(224.31539667452785 29.392130202278167) rotate(0 7.764217176558077 22.41115194065472)"><path d="M4.8 3.25 C6.15 0.66, 7.31 -0.63, 8.88 0.33 C10.46 1.29, 13.15 5.19, 14.26 8.99 C15.37 12.8, 15.6 18.34, 15.52 23.15 C15.44 27.95, 14.73 34.26, 13.77 37.84 C12.82 41.43, 11.35 44.13, 9.78 44.65 C8.21 45.18, 5.96 43.46, 4.36 40.99 C2.76 38.52, 0.67 34.45, 0.18 29.84 C-0.31 25.22, 0.72 18.04, 1.43 13.31 C2.13 8.58, 3.68 3.36, 4.38 1.47 C5.08 -0.42, 5.59 1.61, 5.62 1.97 M5.43 -0.38 C7.23 -1.12, 11.81 0.95, 13.38 3.6 C14.95 6.25, 14.51 10.96, 14.84 15.51 C15.17 20.07, 15.99 26.54, 15.36 30.93 C14.72 35.33, 12.47 39.64, 11.02 41.89 C9.58 44.13, 8.46 45.36, 6.71 44.4 C4.96 43.45, 1.49 40.05, 0.53 36.16 C-0.43 32.26, 0.69 26.15, 0.95 21.05 C1.22 15.94, 0.98 9.11, 2.14 5.55 C3.29 2, 7.2 0.63, 7.88 -0.27 C8.56 -1.17, 6.49 -0.55, 6.23 0.14" stroke="#000000" stroke-width="1" fill="none"></path></g><g stroke-linecap="round"><g stroke-opacity="0.9" fill-opacity="0.9" transform="translate(217.75743226023428 68.04009652652667) rotate(0 14.659303301924297 -2.712622320327597)"><path d="M0 0 C0.68 -0.72, 2.68 -3.4, 4.1 -4.32 C5.53 -5.24, 6.64 -5.3, 8.54 -5.52 C10.43 -5.73, 12.97 -5.73, 15.48 -5.63 C17.99 -5.52, 21.44 -5.45, 23.58 -4.86 C25.72 -4.28, 27.36 -2.95, 28.32 -2.1 C29.27 -1.24, 29.15 -0.12, 29.32 0.27 M0 0 C0.68 -0.72, 2.68 -3.4, 4.1 -4.32 C5.53 -5.24, 6.64 -5.3, 8.54 -5.52 C10.43 -5.73, 12.97 -5.73, 15.48 -5.63 C17.99 -5.52, 21.44 -5.45, 23.58 -4.86 C25.72 -4.28, 27.36 -2.95, 28.32 -2.1 C29.27 -1.24, 29.15 -0.12, 29.32 0.27" stroke="#000000" stroke-width="1" fill="none"></path></g></g><g stroke-linecap="round" transform="translate(196.5917791055722 183.11637243891948) rotate(0 35.408220894427814 54.15214451096952)"><path d="M1.41 -0.82 L69 0.97 L70.78 109.91 L-1.36 109.22" stroke="none" stroke-width="0" fill="#ced4da"></path><path d="M-0.95 -1.63 C25.99 -0.28, 56.64 -0.12, 72.38 1.25 M-0.1 0.33 C25.48 -0.92, 50.67 -0.07, 71.26 -0.3 M69.65 -1.96 C72.13 21.94, 71.49 43.25, 69.94 107.56 M70.21 -0.53 C70.67 40.53, 71.03 82.11, 71.57 107.82 M70.81 107.5 C52.99 109.18, 31.2 108.1, -1.79 108.41 M71.56 108.2 C53.37 109.74, 35.01 108.1, -0.16 108.41 M-1.61 107.57 C-1.58 66.72, 0.94 23.01, -1.96 1.71 M0.27 109.24 C-0.85 84.44, -1.4 61.82, -0.2 0.62" stroke="#000000" stroke-width="1" fill="none"></path></g><g stroke-linecap="round" transform="translate(204.6994831956638 191.37355378931636) rotate(0 27.900581767571623 41.41639447687882)"><path d="M-0.82 -1.82 L56.77 -0.04 L57.4 81.48 L0.92 84.39" stroke="none" stroke-width="0" fill="#fff"></path><path d="M-1.63 -1.6 C12.91 1.72, 26.47 1.83, 57.05 1.19 M0.33 0.03 C20.98 -0.17, 43.64 0.5, 55.5 -0.98 M53.84 0.55 C56.65 30.6, 56.07 60.5, 55.06 84.49 M55.27 0.15 C55.13 23.1, 55.26 45.93, 55.31 82.62 M55 84.71 C43.74 82.63, 29.66 81.04, 0.11 81.79 M55.7 82.92 C37.82 82.51, 17.33 83.09, 0.11 83.76 M-0.73 81.74 C0.96 55.65, -0.21 23.65, 1.71 -1.68 M0.93 82.82 C-1.16 51, -0.37 20.09, 0.62 0.71" stroke="#000000" stroke-width="1" fill="none"></path></g><g stroke-linecap="round" transform="translate(226.88615296001592 277.7512369119011) rotate(0 5.713912003219434 5.713912003219434)"><path d="M3.77 1.31 C5.04 0.85, 7.02 0.11, 8.03 0.29 C9.03 0.48, 9.34 1.27, 9.81 2.4 C10.27 3.53, 10.75 5.83, 10.81 7.08 C10.88 8.33, 11.18 9.04, 10.18 9.91 C9.19 10.78, 6.32 12.11, 4.84 12.28 C3.36 12.45, 1.93 11.8, 1.28 10.93 C0.64 10.06, 0.9 8.41, 0.96 7.07 C1.02 5.74, 1.05 4.2, 1.65 2.93 C2.24 1.67, 3.7 -0.02, 4.54 -0.51 C5.38 -1.01, 6.49 -0.36, 6.68 -0.05 M4.52 1.32 C5.7 1.01, 6.12 0.99, 7.4 1.37 C8.68 1.75, 11.43 2.38, 12.19 3.59 C12.95 4.81, 12.51 7.72, 11.98 8.66 C11.46 9.61, 10.36 8.66, 9.04 9.26 C7.73 9.85, 5.1 12.18, 4.08 12.22 C3.06 12.27, 3.79 10.61, 2.92 9.53 C2.06 8.44, -0.67 6.84, -1.11 5.71 C-1.55 4.58, -0.61 3.77, 0.28 2.75 C1.18 1.73, 3.73 0.03, 4.26 -0.41 C4.8 -0.85, 3.55 -0.02, 3.5 0.1" stroke="none" stroke-width="0" fill="#fff"></path><path d="M5.8 0.67 C6.92 0.63, 8.5 1.28, 9.42 1.83 C10.34 2.38, 11.01 2.92, 11.32 3.95 C11.63 4.97, 11.94 6.87, 11.3 7.98 C10.66 9.09, 8.63 9.95, 7.48 10.58 C6.34 11.2, 5.56 12.12, 4.45 11.72 C3.35 11.32, 1.47 9.06, 0.85 8.17 C0.23 7.28, 0.7 7.6, 0.71 6.38 C0.73 5.16, 0.15 1.89, 0.96 0.83 C1.76 -0.22, 4.8 0.2, 5.56 0.04 C6.32 -0.12, 5.63 -0.18, 5.51 -0.15 M7.1 -0.31 C8.3 -0.21, 10.24 0.78, 11.06 1.82 C11.89 2.85, 12.17 4.61, 12.03 5.9 C11.89 7.2, 11.4 8.83, 10.24 9.59 C9.07 10.34, 6.46 10.37, 5.02 10.41 C3.58 10.46, 2.53 10.28, 1.6 9.84 C0.67 9.4, -0.58 8.99, -0.57 7.75 C-0.56 6.51, 0.91 3.87, 1.67 2.39 C2.44 0.92, 2.94 -0.66, 4.01 -1.11 C5.08 -1.56, 7.34 -0.79, 8.09 -0.3 C8.84 0.18, 8.4 1.58, 8.53 1.78" stroke="#000000" stroke-width="1" fill="none"></path></g><g stroke-linecap="round" transform="translate(212.97917359563428 201.91771046545648) rotate(0 19.620891367601075 9.944730235592885)"><path d="M0 0 C0 0, 0 0, 0 0 M0 0 C0 0, 0 0, 0 0 M-0.1 6.52 C0.9 5.37, 2.18 3.34, 4.43 0.99 M-0.26 6.28 C1.48 4.01, 3.85 1.41, 4.99 0.71 M0.33 13.35 C3.45 9.01, 5.2 5.39, 10.49 0.96 M-0.44 12.38 C3.05 7.25, 7.77 4.33, 10.28 0.15 M-0.44 19.66 C5.94 13.4, 12.68 6.08, 13.83 0.4 M0.48 18.19 C5.37 11.28, 11.1 4.8, 15.43 0.18 M1.86 21.41 C8.49 13.66, 16.8 4.72, 19.42 0.29 M3.06 22.36 C6.69 16.24, 10.21 11.8, 21.16 0.16 M7.44 21.93 C13.98 13.6, 21.23 8.95, 24.42 2.19 M7.16 22.35 C13.83 13.89, 20.12 7.22, 25.91 0.09 M13.66 23.01 C19.31 14.81, 22.29 7.57, 30.69 0.1 M13.02 22.24 C18.16 14.54, 25.7 7.05, 32.64 0.75 M17.5 20.38 C23.31 15.58, 30.63 8.16, 35.33 0.81 M18.81 21.76 C23.69 14.45, 29.25 7.55, 36.49 -0.22 M25.49 23.54 C28.74 14.22, 36.05 9.12, 42.53 1.56 M23.68 21.9 C27.91 16.79, 31.23 13.35, 41.83 1.08 M28.29 23.86 C31.44 19.47, 35.12 12.07, 42.11 6.21 M27.58 22.9 C33.57 16.78, 37.95 10.38, 40.1 8.69 M33.93 22.47 C35.52 18.84, 37.98 16.34, 42.16 12.61 M33.72 22.07 C35.75 20.32, 37.21 18.64, 41.58 13.7 M-0.04 19.86 C-0.04 19.86, -0.04 19.86, -0.04 19.86 M-0.04 19.86 C-0.04 19.86, -0.04 19.86, -0.04 19.86 M6.49 20.45 C4.32 18.79, 0.78 15.2, 0.01 14.99 M6.01 20.16 C4.96 18.67, 3.1 17.42, 0.12 14.51 M10.75 19.03 C7.38 15.28, 4.14 12.67, 1.36 9.85 M12.02 19.8 C8.49 17.09, 4.47 12.75, -0.38 9.34 M19.25 21.88 C13.5 16.2, 7.59 11.01, -1.04 5.55 M19.29 19.74 C13.3 15.19, 8.4 11.53, -0.2 3.61 M25.54 20.81 C14.82 10.93, 6.17 5.35, -0.49 -2.65 M23.72 19.69 C18 13, 10.57 7.76, 1.22 -1.54 M30.61 18.9 C26.3 13.94, 20.54 8.47, 7.2 -0.23 M29.59 19.79 C25.39 15.28, 19.76 11.26, 7.68 -1.15 M35.27 21.32 C28.15 14.54, 20.3 9.02, 13.64 -0.9 M36.83 19.95 C29.3 15.1, 23.25 7.97, 13.67 -0.26 M40.44 18.02 C34.79 14.86, 32.75 8.05, 19.26 -2.01 M40.81 18.48 C35.71 12.38, 29.43 8.78, 18.49 -1.55 M40.56 11.1 C36.14 9.95, 34.03 5.54, 25.88 -0.21 M40.94 13.29 C36.65 9.06, 32.21 5.41, 24.04 -1.24 M39.69 7.61 C37.74 5.36, 37.13 3.75, 30.76 -0.33 M41.15 8.22 C38.49 6.56, 36.14 4.26, 31.61 -0.24 M40.77 1.86 C39.51 1.24, 38.68 0.63, 37.28 -0.54 M40.67 2.03 C39.9 1.66, 39.14 1.19, 37.42 -0.66" stroke="#fab005" stroke-width="0.5" fill="none"></path><path d="M-0.49 1.45 C9.58 1.87, 21.06 1.5, 41.06 0.28 M-0.82 -0.23 C11.41 0.43, 22.46 -0.99, 39.95 0.97 M39.29 -0.09 C38.52 3.94, 38.31 11.27, 38.7 20.46 M38.34 0.51 C38.37 5.51, 38.65 9.3, 38.58 19.78 M40.19 19.69 C27.36 18.47, 15.83 19.21, 0.76 21.48 M40.11 19.16 C23.77 19.77, 9.96 20.85, 0.45 19.87 M0.94 21.31 C-0.15 13.58, 1.77 9.48, 1.54 1.7 M-0.45 19.33 C0.15 13.19, 0.43 7.6, -0.41 -0.91" stroke="#000000" stroke-width="1" fill="none"></path></g><g stroke-linecap="round" transform="translate(212.97917359563428 237.4754705104109) rotate(0 19.620891367601075 9.944730235592885)"><path d="M0 0 C0 0, 0 0, 0 0 M0 0 C0 0, 0 0, 0 0 M-0.14 6 C1.81 4.21, 2.88 2.75, 5.62 1.11 M-0.38 6.1 C1.57 4.29, 3.19 2.18, 5.33 0.03 M1.45 12.98 C2.12 9.68, 3.52 6.4, 11.62 0.64 M0.48 11.27 C1.78 9.82, 5.3 6.48, 10.81 0.53 M1.09 18.67 C6.27 14.15, 10.4 5.78, 15.7 1.54 M-0.38 18.43 C5.49 11.21, 11.78 3.81, 15.47 1.01 M1.83 21.18 C8.79 14.84, 14.58 4.65, 21.62 -1.79 M2.78 21.99 C5.17 16.86, 9.25 12.73, 21.49 0.06 M6.97 22.83 C9.95 18.98, 16.6 10.1, 28.15 1.39 M7.39 22.15 C13.4 13.96, 21.23 6.39, 26.04 0.28 M14.09 22.71 C19.68 11.57, 26.26 3.8, 32.09 0.27 M13.33 20.96 C17.73 16.47, 22.35 10.64, 32.74 0.05 M16.09 21.82 C25.71 14.51, 32.73 3.28, 37.43 0.55 M17.47 22.18 C24.3 13.19, 31.58 4.81, 36.4 0.78 M25.29 20.64 C27.45 16.59, 33.82 13.03, 41.39 -0.16 M23.64 22.07 C27.22 16.64, 32.47 12.83, 40.91 1.49 M30.23 21.09 C33.32 17.45, 33.38 16.39, 39.39 9.42 M29.27 22.5 C33.54 16.62, 37.52 10.28, 41.86 7.86 M34.88 20.85 C35.72 18.9, 37.69 18.17, 40.54 12.37 M34.48 21.89 C36.86 19.13, 39.31 16.42, 41.63 13.86 M-0.04 19.86 C-0.04 19.86, -0.04 19.86, -0.04 19.86 M-0.04 19.86 C-0.04 19.86, -0.04 19.86, -0.04 19.86 M6.7 20.49 C4.78 17.31, 0.92 15.76, 0.44 14.48 M6.4 20.22 C4.59 18.41, 3.04 17.05, -0.04 15.03 M11.31 19.24 C7.39 16.58, 4.41 14.18, 0.55 9.31 M12.08 19.82 C9.97 17.09, 6.07 14.61, 0.05 8.94 M20.29 19.97 C11.99 13.23, 4.4 7.32, 1.6 3.36 M18.16 19.61 C11.15 13.89, 5.07 8.43, -0.34 4.72 M25.27 18.36 C17.35 13.53, 13.66 9.62, -1.25 -0.9 M24.14 20.54 C14.95 12.27, 6.91 4.87, -0.14 -1.45 M29.49 21.18 C21.23 13.68, 12.24 5.79, 7.3 -1.99 M30.38 20.2 C21.89 12.08, 13.75 5.19, 6.38 -0.45 M38.05 18.74 C30.79 11.75, 24.43 8.34, 12.67 -1.38 M36.68 19.24 C30.19 13.36, 21.4 8.16, 13.31 -1.57 M40.59 17.31 C34.64 14.19, 25.25 6.39, 17.69 -1.17 M41.04 19.15 C32.84 12.67, 27.38 5.52, 18.16 -1.17 M38.91 12.28 C35.55 9.12, 28.84 4.07, 25.53 -2.07 M41.11 12.66 C36.54 8.95, 32.57 5.65, 24.5 -1.47 M40.77 7.03 C38.38 6.7, 36.5 3.1, 31.55 -1.76 M41.38 7.48 C39.01 5.12, 36.06 3.87, 31.64 -0.41 M40.27 2.17 C39.61 1.61, 39 0.3, 37.48 -0.84 M40.44 2.13 C39.75 1.24, 38.92 0.46, 37.36 -0.44" stroke="#fab005" stroke-width="0.5" fill="none"></path><path d="M1.45 -0.32 C10.13 1.34, 18.32 1.91, 39.52 -0.2 M-0.23 0.03 C13.5 0.02, 25.13 1.03, 40.21 -0.58 M39.15 -0.53 C38.42 3.28, 40.94 7.49, 39.81 18.68 M39.75 -0.77 C40.03 4.43, 39.06 9.17, 39.13 19.89 M39.04 19.76 C27.26 20.19, 17.81 20.83, 1.59 21.38 M38.51 19.12 C27.72 20.34, 17.44 20.69, -0.02 19.09 M1.42 19.66 C-1.84 16.35, -1.56 10.95, 1.7 0.53 M-0.56 20.23 C-0.2 12.68, 0.7 3.83, -0.91 0.48" stroke="#000000" stroke-width="1" fill="none"></path></g><g stroke-linecap="round"><g transform="translate(232 70.26851694988892) rotate(0 -6.546354559813608 57.332887827912344)"><path d="M0.95 1.13 C-1.4 20.1, -10.91 94.23, -13.4 112.98 M-0.01 0.68 C-2.52 19.84, -11.58 94.97, -14.04 113.99" stroke="#000000" stroke-width="1" fill="none"></path></g></g><g stroke-linecap="round"><g transform="translate(231 288.2685169498889) rotate(0 -46.4462540732045 50.22927391900214)"><path d="M-0.93 0.33 C-16.5 17.18, -77.67 84.19, -92.82 101 M0.79 -0.54 C-14.98 16, -78.21 82.74, -93.68 99.4" stroke="#000000" stroke-width="1" fill="none"></path></g><g transform="translate(231 288.2685169498889) rotate(0 -46.4462540732045 50.22927391900214)"><path d="M-81.3 72.12 C-84.36 83.27, -88.25 90.28, -93.61 98.13 M-82.33 72.35 C-85.7 78.54, -87.2 87.07, -94.24 99.19" stroke="#000000" stroke-width="1" fill="none"></path></g><g transform="translate(231 288.2685169498889) rotate(0 -46.4462540732045 50.22927391900214)"><path d="M-66.34 86.17 C-74.63 92.28, -83.76 94.37, -93.61 98.13 M-67.37 86.4 C-74.55 88.87, -79.97 93.73, -94.24 99.19" stroke="#000000" stroke-width="1" fill="none"></path></g></g><g stroke-linecap="round"><g transform="translate(237 282.2685169498889) rotate(0 10.18633240976834 71.2141179613769)"><path d="M0.11 -0.84 C3.53 23.21, 17.9 119.33, 21.67 143.26 M-1.3 1.34 C1.84 25.09, 16.61 117.5, 20.55 141.28" stroke="#000000" stroke-width="1" fill="none"></path></g><g transform="translate(237 282.2685169498889) rotate(0 10.18633240976834 71.2141179613769)"><path d="M4.52 114.54 C11.93 126.62, 16.94 135.93, 22.04 139.33 M4.99 114.54 C11.66 123.91, 16.09 132.29, 20.3 141.58" stroke="#000000" stroke-width="1" fill="none"></path></g><g transform="translate(237 282.2685169498889) rotate(0 10.18633240976834 71.2141179613769)"><path d="M24.78 111.26 C24.14 124.65, 21.14 135.27, 22.04 139.33 M25.25 111.26 C25 121.63, 22.49 131.13, 20.3 141.58" stroke="#000000" stroke-width="1" fill="none"></path></g></g><g stroke-linecap="round"><g transform="translate(235 286.2685169498889) rotate(0 80.59164747962268 30.388580275760035)"><path d="M1.01 -0.93 C27.94 9.31, 134.46 49.94, 161.1 60.46 M0.09 1.19 C26.91 11.68, 133.56 51.84, 160.2 61.71" stroke="#000000" stroke-width="1" fill="none"></path></g><g transform="translate(235 286.2685169498889) rotate(0 80.59164747962268 30.388580275760035)"><path d="M128.65 61.6 C137.09 60.93, 147.72 60.1, 160.05 60.74 M129.47 62.2 C140.74 61, 151.41 62.28, 161 62.11" stroke="#000000" stroke-width="1" fill="none"></path></g><g transform="translate(235 286.2685169498889) rotate(0 80.59164747962268 30.388580275760035)"><path d="M135.84 42.38 C142.25 46.77, 151.02 50.93, 160.05 60.74 M136.67 42.98 C145.17 48.82, 153.18 57.18, 161 62.11" stroke="#000000" stroke-width="1" fill="none"></path></g></g><g transform="translate(10 168.26851694988892) rotate(0 56 13)"><text x="0" y="18" font-family="Virgil, Segoe UI Emoji" font-size="20px" fill="#000000" text-anchor="start" style="white-space: pre;" direction="ltr">git.io/J1NRs</text></g></svg>